<?xml version="1.0" encoding="utf-8"?>
<!-- Generator: Adobe Illustrator 16.0.0, SVG Export Plug-In . SVG Version: 6.00 Build 0)  -->
<!DOCTYPE svg PUBLIC "-//W3C//DTD SVG 1.1//EN" "http://www.w3.org/Graphics/SVG/1.1/DTD/svg11.dtd">
<svg version="1.1" id="Layer_1" xmlns="http://www.w3.org/2000/svg" xmlns:xlink="http://www.w3.org/1999/xlink" x="0px" y="0px"
	 width="192.756px" height="51.024px" viewBox="0 0 192.756 51.024" enable-background="new 0 0 192.756 51.024"
	 xml:space="preserve">
<path fill-rule="evenodd" clip-rule="evenodd" fill="#F79820" d="M93.559,45.896h4.323V29.122c0-1.916,0.512-4.097,1.542-5.268
	c1.029-1.173,2.684-1.764,4.385-1.764c1.663,0,3.025,0.591,4.081,1.764c1.049,1.171,1.581,3.348,1.581,5.268v16.774h4.601V29.122
	c0-1.916,0.525-4.097,1.552-5.268c1.037-1.173,2.694-1.764,4.378-1.764c1.664,0,3.017,0.591,4.058,1.764
	c1.036,1.171,1.559,3.348,1.559,5.268v16.774h4.301V30.048c0-3.716-0.93-6.653-2.79-8.828c-1.853-2.167-4.327-3.257-7.431-3.257
	c-1.605,0-3.077,0.354-4.41,1.062c-1.339,0.715-2.522,1.135-3.542,2.529c-0.979-1.374-2.152-1.797-3.513-2.511
	c-1.353-0.718-2.83-1.08-4.438-1.08c-3.126,0-5.614,1.08-7.471,3.25c-1.84,2.156-2.766,5.101-2.766,8.835V45.896z M131.609,21.651
	l4-3.669h-4V21.651z M91.494,17.92l-7.973,0.003h-1.334v17.17c0,2.378-0.476,4.202-1.444,5.453c-0.96,1.263-2.339,1.888-4.142,1.888
	c-1.799,0-3.173-0.625-4.134-1.888c-0.958-1.251-1.434-3.075-1.434-5.453v-17.17H67.58v10.897h-1.616
	c-0.162-0.738-0.378-1.455-0.655-2.162c-0.663-1.691-1.624-3.224-2.862-4.581c-1.257-1.339-2.691-2.363-4.284-3.076
	c-1.599-0.703-3.268-1.068-5.003-1.068c-1.773,0-3.462,0.366-5.068,1.068c-1.599,0.713-3.023,1.737-4.27,3.076
	c-1.269,1.352-2.229,2.873-2.881,4.562c-0.655,1.699-0.979,3.498-0.979,5.396c0,3.424,0.965,6.39,2.904,8.905
	c0.446,0.579,0.919,1.105,1.434,1.599h-5.892c-1.659,0-2.935-0.489-3.83-1.447c-0.891-0.969-1.34-2.348-1.34-4.137V24.951h-3.45
	V36.36c0,3.209,0.755,5.594,2.283,7.17c1.523,1.581,3.842,2.366,6.939,2.366h11.563v-0.013l0.08,0.013v-3.511
	c-2.159-0.631-3.892-1.904-5.205-3.81c-1.32-1.909-1.972-4.102-1.972-6.583c0-1.432,0.245-2.794,0.724-4.078
	c0.486-1.287,1.207-2.448,2.144-3.496c0.918-1,1.948-1.777,3.119-2.317c1.165-0.54,2.399-0.806,3.697-0.806
	c1.279,0,2.502,0.266,3.676,0.806c1.17,0.54,2.202,1.317,3.101,2.317c0.917,1.022,1.62,2.177,2.109,3.48
	c0.113,0.304,0.216,0.612,0.303,0.922h-0.758c-3.223,0-5.622,0.756-7.211,2.273c-1.396,1.332-2.117,3.08-2.279,5.631v8.988
	c5.311,0.545,8.147-0.752,11.247-4.737c1.972-2.519,2.958-5.499,2.964-8.927h1.268v3.222c0,3.235,0.825,5.821,2.465,7.736
	c1.638,1.923,3.825,2.884,6.556,2.884c2.732,0,4.927-0.961,6.573-2.884c1.646-1.915,2.465-4.501,2.465-7.736V21.39h5.855V17.92z
	 M55.454,36.725c0.087-1.422,0.573-2.533,1.449-3.339c0.972-0.888,2.358-1.337,4.162-1.337h1.708
	c-0.014,2.492-0.67,4.676-1.993,6.551c-1.318,1.898-3.099,3.154-5.326,3.785V36.725z M168.731,32.584l11.944-0.01v13.321h3.702
	V28.703c0-3.301-0.887-5.923-2.642-7.862c-1.769-1.938-4.116-2.911-7.04-2.911c-2.926,0-5.263,0.974-7.028,2.911
	c-1.755,1.938-2.63,4.561-2.63,7.862v17.193h3.693V32.584z M168.731,29.073V28.78c0-2.409,0.514-4.257,1.533-5.526
	c1.029-1.275,2.5-1.916,4.432-1.916c1.928,0,3.405,0.64,4.442,1.916c1.031,1.27,1.537,3.118,1.537,5.526v0.3L168.731,29.073z
	 M163.019,17.963h-4.022v3.467h4.022V17.963z M159.017,45.948h4.002v-23.12h-4.002V45.948z M131.609,45.77h4V22.828h-4V45.77z
	 M87.493,45.896h4.001V22.779h-4.001V45.896z M141.388,45.896c3.272,0,6.724-0.015,9.634-1.866c2.104-1.332,3.723-3.051,4.875-5.14
	c1.145-2.087,1.712-4.409,1.712-6.946c0-2.545-0.542-4.841-1.638-6.883c-1.083-2.034-2.672-3.729-4.766-5.079
	c-3.893-2.511-9.13-1.966-13.453-1.966v27.88H141.388z M141.319,41.857l0.015-20.215c3.424-0.199,6.78-0.08,9.449,2.488
	c1.998,1.923,2.992,4.507,2.992,7.763c0,3.2-0.979,5.773-2.929,7.722C148.482,41.983,143.818,42.747,141.319,41.857z M22.022,5.076
	v4.341c8.531,0.83,12.796,5.946,13.599,13.41l3.903,0.04C38.418,13.112,33.087,6.263,22.022,5.076z M33.256,22.815
	c-1.048-5.97-4.528-10.259-11.234-10.993v4.033c4.257,0.558,6.597,3.198,7.476,6.921L33.256,22.815z M22.202,18.389v4.271h4.546
	C26.062,19.888,24.865,18.919,22.202,18.389z M24.02,29.073L12.073,29.08v-0.3c0-2.409,0.513-4.257,1.547-5.526
	c1.028-1.275,2.506-1.916,4.436-1.916c0.587,0,1.133,0.056,1.635,0.175v-3.47c-0.521-0.072-1.063-0.114-1.635-0.114
	c-2.925,0-5.272,0.974-7.041,2.911c-1.75,1.938-2.636,4.561-2.636,7.862v17.193h3.694V32.575l11.947,0.01v13.312h3.695V28.703
	c0-1.289-0.132-2.72-0.398-3.796h-3.815c0.344,1.014,0.518,2.479,0.518,3.874V29.073z"/>
</svg>
